<?xml version="1.0" standalone="no"?>
<!DOCTYPE svg PUBLIC "-//W3C//DTD SVG 20010904//EN"
 "http://www.w3.org/TR/2001/REC-SVG-20010904/DTD/svg10.dtd">
<svg version="1.0" xmlns="http://www.w3.org/2000/svg"
 width="942.000000pt" height="945.000000pt" viewBox="0 0 942.000000 945.000000"
 preserveAspectRatio="xMidYMid meet">

<g transform="translate(0.000000,945.000000) scale(0.100000,-0.100000)"
fill="#000000" stroke="none">
<path d="M7765 9329 c-11 -6 -287 -277 -612 -603 l-593 -591 -592 592 c-617
615 -618 616 -680 598 -13 -4 -294 -278 -625 -608 l-603 -602 -592 592 c-326
326 -605 597 -620 602 -17 6 -38 7 -60 0 -48 -13 -2574 -2539 -2588 -2587 -5
-21 -5 -43 1 -60 5 -15 276 -294 602 -620 l592 -592 -602 -603 c-330 -331
-604 -612 -608 -625 -18 -62 -17 -63 598 -680 l592 -592 -592 -593 c-325 -325
-596 -602 -602 -614 -15 -30 -14 -69 3 -101 18 -33 1262 -1275 1293 -1291 28
-14 68 -14 96 0 12 6 289 277 614 602 l593 592 592 -592 c617 -615 618 -616
680 -598 13 4 294 278 625 608 l603 602 592 -592 c326 -326 605 -597 620 -602
17 -6 39 -6 60 -1 48 14 2574 2540 2587 2588 7 22 6 43 0 60 -5 15 -276 294
-602 620 l-592 592 602 603 c330 331 604 612 608 625 18 62 17 63 -598 680
l-592 592 592 593 c325 325 596 602 602 614 15 30 14 69 -3 101 -18 33 -1262
1275 -1293 1291 -27 14 -72 14 -98 0z m-42 -2521 l-1178 -1178 -542 542 -543
543 1177 1177 1178 1178 542 -542 543 -543 -1177 -1177z m-2500 -10 l-1178
-1178 -542 542 -543 543 1177 1177 1178 1178 542 -542 543 -543 -1177 -1177z
m-1858 1702 l540 -540 -1178 -1178 -1177 -1177 -542 543 -543 542 1175 1175
c646 646 1177 1175 1180 1175 3 0 248 -243 545 -540z m4348 -4192 l-1178
-1178 -542 542 -543 543 1177 1177 1178 1178 542 -542 543 -543 -1177 -1177z
m-2500 -10 l-1178 -1178 -542 542 -543 543 1177 1177 1178 1178 542 -542 543
-543 -1177 -1177z m-2500 -10 l-1178 -1178 -542 542 -543 543 1177 1177 1178
1178 542 -542 543 -543 -1177 -1177z m5622 -758 l540 -540 -1178 -1178 -1177
-1177 -542 543 -543 542 1175 1175 c646 646 1177 1175 1180 1175 3 0 248 -243
545 -540z m-3132 -1732 l-1178 -1178 -542 542 -543 543 1177 1177 1178 1178
542 -542 543 -543 -1177 -1177z m-2500 -10 l-1178 -1178 -542 542 -543 543
1177 1177 1178 1178 542 -542 543 -543 -1177 -1177z"/>
</g>
</svg>
