<?xml version="1.0" standalone="no"?>
<!DOCTYPE svg PUBLIC "-//W3C//DTD SVG 20010904//EN"
 "http://www.w3.org/TR/2001/REC-SVG-20010904/DTD/svg10.dtd">
<svg version="1.0" xmlns="http://www.w3.org/2000/svg"
 width="427.000000pt" height="408.000000pt" viewBox="0 0 427.000000 408.000000"
 preserveAspectRatio="xMidYMid meet">

<g transform="translate(0.000000,408.000000) scale(0.100000,-0.100000)"
fill="#000000" stroke="none">
<path d="M3834 3790 c-12 -5 -64 -59 -117 -122 -105 -125 -181 -201 -272 -273
-76 -60 -95 -94 -95 -165 0 -48 -4 -60 -28 -83 l-28 -27 -169 171 c-174 175
-220 209 -285 209 -47 0 -110 -30 -142 -68 -24 -29 -142 -315 -218 -527 -107
-300 -270 -815 -270 -853 0 -36 22 -93 47 -123 31 -37 95 -68 138 -69 107 -1
1259 397 1378 476 68 45 97 154 61 227 -9 18 -93 110 -187 204 l-171 172 29
31 c24 25 36 30 76 30 72 0 91 12 170 106 97 116 161 179 272 267 50 41 98 82
106 91 23 27 26 117 6 156 -24 46 -93 119 -144 152 -47 29 -111 37 -157 18z
m89 -89 c30 -12 116 -97 128 -128 14 -37 -1 -57 -96 -131 -97 -76 -204 -181
-280 -277 -56 -71 -66 -78 -99 -69 -33 8 -136 117 -136 144 0 23 13 37 123
129 76 64 176 169 252 266 61 78 67 81 108 66z m-873 -476 l174 -174 -97 -99
c-92 -94 -97 -102 -97 -141 0 -80 48 -131 125 -131 51 0 69 11 165 106 l86 84
169 -170 c94 -94 173 -178 176 -188 8 -20 1 -61 -15 -81 -15 -19 -95 -55 -306
-136 -334 -128 -974 -335 -1038 -335 -35 0 -82 48 -82 83 0 28 88 322 170 566
111 335 265 731 298 768 15 16 32 23 59 23 36 0 47 -9 213 -175z m385 -145
c19 -21 17 -23 -128 -168 -123 -123 -150 -145 -164 -136 -9 6 -19 16 -21 23
-4 11 274 301 289 301 3 0 14 -9 24 -20z"/>
<path d="M218 2259 c-16 -9 -18 -32 -18 -242 l0 -231 -37 -39 c-34 -33 -38
-44 -38 -87 0 -43 4 -54 38 -87 l37 -39 0 -191 0 -191 -35 -21 c-68 -40 -83
-134 -29 -183 70 -63 64 -36 64 -283 0 -212 1 -225 19 -235 13 -7 630 -10
1924 -10 1832 0 1905 1 1920 18 15 16 17 48 17 244 l0 226 35 35 c29 29 35 42
35 76 0 48 -21 96 -50 111 -19 10 -20 21 -20 215 0 194 1 205 20 215 46 24 63
105 35 160 -33 63 38 60 -1215 60 l-1140 0 0 229 c0 226 0 230 -22 245 -20 14
-110 16 -773 16 -491 -1 -756 -4 -767 -11z m1462 -284 l0 -195 -692 2 -693 3
-3 193 -2 192 695 0 695 0 0 -195z m2370 -300 c10 -12 10 -18 0 -30 -11 -13
-103 -15 -714 -15 -533 0 -705 -3 -714 -12 -9 -9 -12 -84 -12 -274 0 -260 0
-263 22 -278 20 -14 105 -16 720 -16 473 0 699 -3 703 -10 4 -6 1 -17 -5 -25
-11 -13 -70 -15 -379 -15 -272 0 -370 -3 -379 -12 -9 -9 -12 -76 -12 -240 l0
-228 -25 0 -25 0 -1 203 c-1 111 -1 208 0 215 1 8 -5 24 -14 38 l-15 24 -675
0 c-656 0 -675 -1 -685 -19 -6 -12 -10 -107 -10 -240 l0 -221 -25 0 -25 0 0
223 c0 163 -3 228 -13 240 -11 16 -72 17 -787 20 -768 2 -775 2 -775 22 0 20
8 20 400 25 220 3 406 9 413 13 17 11 18 537 0 555 -9 9 -109 12 -389 12 -208
0 -384 3 -393 6 -19 7 -21 40 -3 47 6 3 865 6 1908 6 1674 1 1898 -1 1909 -14z
m-3110 -330 l0 -195 -325 0 -325 0 0 195 0 195 325 0 325 0 0 -195z m3040 0
l0 -195 -635 0 -635 0 0 195 0 195 635 0 635 0 0 -195z m-2300 -630 l0 -195
-695 0 -695 0 0 188 c0 104 3 192 7 195 3 4 316 7 695 7 l688 0 0 -195z m1448
-2 l2 -193 -600 0 -600 0 0 195 0 195 598 -2 597 -3 3 -192z m852 2 l0 -195
-305 0 -305 0 0 188 c0 104 3 192 7 195 3 4 141 7 305 7 l298 0 0 -195z"/>
<path d="M1102 1618 c-9 -9 -12 -85 -12 -280 0 -254 1 -268 19 -278 13 -6 255
-10 715 -10 683 0 696 0 716 20 19 19 20 33 20 271 0 153 -4 258 -10 270 -10
19 -29 19 -723 19 -541 0 -716 -3 -725 -12z m1358 -273 l0 -195 -640 0 -640 0
0 195 0 195 640 0 640 0 0 -195z"/>
</g>
</svg>
