<?xml version="1.0" standalone="no"?>
<!DOCTYPE svg PUBLIC "-//W3C//DTD SVG 20010904//EN"
 "http://www.w3.org/TR/2001/REC-SVG-20010904/DTD/svg10.dtd">
<svg version="1.0" xmlns="http://www.w3.org/2000/svg"
 width="254.000000pt" height="243.000000pt" viewBox="0 0 254.000000 243.000000"
 preserveAspectRatio="xMidYMid meet">

<g transform="translate(0.000000,243.000000) scale(0.100000,-0.100000)"
fill="#000000" stroke="none">
<path d="M1633 2197 c-88 -32 -397 -281 -564 -454 -113 -117 -158 -189 -179
-286 l-11 -52 -426 -340 c-233 -187 -429 -348 -435 -359 -12 -23 5 -39 377
-350 170 -142 278 -226 292 -226 19 0 381 302 1651 1380 63 54 112 103 112
112 0 22 -21 38 -339 244 -247 161 -260 171 -266 205 -19 108 -111 163 -212
126z m127 -31 c44 -19 71 -106 51 -158 -13 -35 -26 -36 -29 -1 -3 41 -49 111
-93 143 -37 26 -38 29 -17 32 22 4 56 -3 88 -16z m-74 -48 c46 -41 78 -108 69
-148 -5 -22 -32 -48 -108 -107 -134 -102 -233 -187 -338 -290 l-85 -84 -33 51
c-34 53 -97 106 -138 116 -22 6 -22 6 9 45 61 76 320 300 472 407 73 52 102
53 152 10z m472 -313 c263 -172 273 -179 255 -196 -77 -76 -1712 -1449 -1725
-1449 -14 0 -428 337 -617 502 l-34 30 24 23 c13 13 202 166 419 340 l395 315
6 -82 c4 -46 10 -115 14 -154 6 -59 5 -76 -11 -106 -12 -22 -89 -95 -204 -192
-225 -191 -227 -193 -210 -238 20 -51 40 -68 76 -68 29 0 123 74 736 576 387
317 711 585 721 596 17 20 22 63 11 93 -10 26 -59 46 -86 36 -13 -5 -195 -147
-403 -315 -234 -188 -388 -306 -401 -306 -20 0 -21 3 -12 42 20 93 94 189 272
357 90 84 295 252 380 310 25 18 53 46 62 62 14 28 17 29 37 16 12 -8 145 -94
295 -192z m-193 -5 c3 -5 2 -16 -2 -24 -4 -8 -163 -138 -353 -290 -190 -152
-346 -281 -348 -286 -2 -6 2 -10 9 -10 12 0 627 487 692 548 27 27 37 32 37
19 0 -9 -12 -30 -27 -46 -29 -30 -1356 -1119 -1398 -1147 -26 -17 -60 -12 -69
11 -3 10 1 15 14 15 19 0 265 191 373 290 30 28 66 72 79 98 22 44 23 56 20
209 -2 128 0 169 12 198 19 46 19 45 1 45 -9 0 -20 -21 -31 -56 -13 -46 -15
-80 -9 -183 10 -174 3 -197 -88 -286 -71 -69 -309 -264 -348 -285 -20 -11 -39
-6 -39 10 0 5 90 86 200 180 110 94 205 180 211 192 26 48 28 82 12 201 -19
145 -9 243 33 337 33 75 63 103 97 95 37 -10 103 -70 133 -121 l26 -45 -42
-60 c-73 -105 -103 -242 -64 -297 23 -33 35 -17 18 23 -18 45 -18 45 10 45 17
0 99 60 258 188 128 103 304 245 391 315 152 122 179 139 192 117z"/>
<path d="M1584 1876 c-88 -66 -216 -177 -211 -183 3 -2 56 38 119 89 63 52
125 102 138 111 13 9 21 19 18 22 -3 3 -32 -14 -64 -39z"/>
</g>
</svg>
