<?xml version="1.0" standalone="no"?>
<!DOCTYPE svg PUBLIC "-//W3C//DTD SVG 20010904//EN"
 "http://www.w3.org/TR/2001/REC-SVG-20010904/DTD/svg10.dtd">
<svg version="1.0" xmlns="http://www.w3.org/2000/svg"
 width="256.000000pt" height="256.000000pt" viewBox="0 0 256.000000 256.000000"
 preserveAspectRatio="xMidYMid meet">

<g transform="translate(0.000000,256.000000) scale(0.100000,-0.100000)"
fill="#000000" stroke="none">
<path d="M80 1280 l0 -1200 610 0 610 0 0 590 0 590 588 2 587 3 3 608 2 607
-1200 0 -1200 0 0 -1200z m210 1160 c0 -21 -31 -85 -53 -109 -22 -24 -91 -60
-114 -61 -10 0 -13 23 -13 83 0 46 3 87 7 90 11 11 173 8 173 -3z m155 -27
c-24 -142 -158 -276 -291 -291 l-44 -5 0 57 c0 52 2 56 28 62 92 22 164 94
186 187 6 26 9 27 67 27 l60 0 -6 -37z m815 -127 c0 -180 1 -176 -63 -176 -60
0 -202 -41 -282 -80 -162 -80 -305 -223 -385 -385 -39 -80 -80 -222 -80 -282
0 -64 4 -63 -176 -63 l-164 0 0 389 0 388 48 7 c150 20 298 168 318 319 l7 47
388 0 389 0 0 -164z m824 117 c20 -152 167 -299 317 -319 l49 -7 0 -388 0
-389 -164 0 c-180 0 -176 -1 -176 63 0 60 -41 202 -80 282 -80 162 -225 307
-385 385 -81 39 -223 80 -282 80 -64 0 -63 -4 -63 176 l0 164 389 0 388 0 7
-47z m364 -45 c2 -67 0 -88 -10 -88 -24 1 -93 37 -115 61 -22 24 -53 88 -53
109 0 7 30 10 88 8 l87 -3 3 -87z m-212 65 c34 -105 93 -164 187 -187 26 -6
27 -9 27 -67 l0 -60 -37 6 c-68 12 -159 63 -207 116 -45 50 -86 138 -86 184 0
24 3 25 55 25 44 0 57 -4 61 -17z m-976 -411 l0 -58 -80 -12 c-290 -42 -520
-272 -562 -562 l-12 -80 -58 0 -58 0 0 43 c0 54 32 187 61 252 53 120 147 240
248 317 120 90 290 156 409 157 l52 1 0 -58z m208 38 c326 -78 562 -349 607
-697 l7 -53 -66 0 -66 0 0 38 c0 21 -8 70 -18 108 -52 196 -181 351 -367 440
-69 33 -182 63 -237 64 -27 0 -28 1 -28 60 l0 60 43 0 c23 0 79 -9 125 -20z
m-208 -199 l0 -59 -71 -12 c-204 -35 -374 -205 -409 -409 l-12 -71 -59 0 -59
0 0 33 c0 98 78 277 161 370 105 118 275 203 412 206 l37 1 0 -59z m165 44
c92 -23 213 -87 281 -149 109 -99 186 -246 200 -385 l7 -61 -61 0 -60 0 -12
71 c-35 204 -205 374 -409 409 l-71 12 0 59 0 59 33 0 c18 0 60 -7 92 -15z
m-165 -370 l0 -225 -225 0 c-256 0 -237 -9 -210 93 21 81 56 146 114 209 71
78 204 144 294 147 l27 1 0 -225z m133 210 c169 -44 299 -172 343 -339 8 -28
14 -61 14 -73 l0 -23 -225 0 -225 0 0 225 c0 256 -9 237 93 210z m-776 -543
c28 -168 81 -272 198 -388 63 -63 100 -91 166 -123 79 -39 191 -70 252 -71 26
0 27 -1 27 -60 l0 -60 -42 0 c-67 0 -202 36 -281 75 -248 121 -424 370 -444
626 l-6 77 59 -1 58 -2 13 -73z m-173 52 c3 -9 6 -30 6 -47 0 -60 41 -202 80
-282 80 -162 223 -305 385 -385 80 -39 222 -80 282 -80 64 0 63 4 63 -176 l0
-164 -389 0 -388 0 -7 49 c-20 150 -167 297 -318 317 l-48 7 0 388 0 389 164
0 c140 0 165 -2 170 -16z m332 -31 c32 -219 206 -399 419 -436 l65 -11 0 -62
0 -63 -37 5 c-88 12 -143 28 -222 66 -114 54 -229 168 -283 278 -38 77 -68
180 -68 238 l0 32 59 0 60 0 7 -47z m484 -178 l0 -225 -22 0 c-79 1 -209 61
-283 131 -76 71 -144 212 -145 297 l0 22 225 0 225 0 0 -225z m-1013 -626
c101 -48 193 -174 193 -264 0 -24 -3 -25 -55 -25 -44 0 -57 4 -61 18 -34 104
-93 163 -186 186 -27 6 -28 9 -28 67 l0 60 38 -6 c20 -4 65 -20 99 -36z m-79
-134 c49 -21 81 -52 103 -100 30 -65 29 -66 -68 -63 l-88 3 -3 88 c-2 57 1 87
8 87 6 0 27 -7 48 -15z"/>
<path d="M1670 1175 c-89 -25 -189 -76 -220 -112 -49 -55 -62 -98 -58 -183 4
-68 10 -85 55 -170 28 -52 61 -132 73 -176 49 -180 120 -246 240 -224 47 9 55
14 47 34 -5 12 -13 13 -43 4 -50 -13 -105 3 -137 41 -14 17 -41 81 -62 148
-20 65 -54 147 -75 183 -66 116 -77 189 -39 268 43 88 191 155 344 156 83 1
96 -2 157 -32 101 -50 141 -103 177 -239 8 -30 21 -47 45 -62 19 -12 37 -33
40 -46 7 -26 20 -32 31 -14 12 19 -16 67 -56 93 -30 20 -39 33 -39 54 0 98
-95 220 -205 262 -77 29 -198 36 -275 15z"/>
<path d="M1687 1051 c-166 -55 -206 -149 -128 -307 21 -43 46 -104 55 -134 8
-30 24 -69 35 -86 23 -37 74 -60 90 -40 8 10 1 19 -27 37 -32 21 -41 35 -67
114 -17 50 -43 110 -57 135 -37 63 -43 107 -23 158 15 36 26 46 83 74 122 60
259 39 318 -49 12 -18 25 -50 29 -70 7 -39 49 -93 71 -93 26 0 27 24 2 44 -13
12 -30 41 -37 66 -39 137 -188 202 -344 151z"/>
<path d="M1715 838 c-6 -16 169 -481 183 -486 5 -1 44 18 88 43 43 25 83 45
88 45 23 0 45 -33 40 -60 -9 -42 15 -75 134 -192 99 -98 112 -108 146 -108 45
0 86 36 86 75 0 44 -24 76 -134 183 -105 102 -107 103 -151 101 -31 -2 -50 2
-63 15 -19 17 -19 19 30 107 28 50 47 94 42 98 -5 5 -110 48 -234 96 -124 48
-231 89 -237 92 -7 3 -15 -1 -18 -9z m246 -116 c96 -38 182 -72 191 -75 15 -5
11 -17 -28 -86 -43 -75 -50 -82 -125 -125 -52 -30 -81 -41 -84 -33 -5 15 -131
345 -140 370 -4 9 -3 17 3 17 5 0 88 -31 183 -68z m381 -430 c59 -59 108 -116
108 -125 0 -28 -38 -59 -63 -52 -26 8 -225 202 -233 228 -8 25 23 57 55 57 19
0 52 -27 133 -108z"/>
</g>
</svg>
