<?xml version="1.0" standalone="no"?>
<!DOCTYPE svg PUBLIC "-//W3C//DTD SVG 20010904//EN"
 "http://www.w3.org/TR/2001/REC-SVG-20010904/DTD/svg10.dtd">
<svg version="1.0" xmlns="http://www.w3.org/2000/svg"
 width="256.000000pt" height="256.000000pt" viewBox="0 0 256.000000 256.000000"
 preserveAspectRatio="xMidYMid meet">

<g transform="translate(0.000000,256.000000) scale(0.100000,-0.100000)"
fill="#000000" stroke="none">
<path d="M506 1898 c-8 -13 -119 -237 -246 -498 -128 -261 -238 -482 -246
-491 -18 -21 -20 -239 -2 -257 9 -9 179 -12 703 -12 647 0 693 1 707 18 8 9
104 200 214 425 109 224 200 407 203 407 4 -1 96 -185 206 -411 110 -225 207
-416 216 -425 13 -12 42 -14 149 -12 115 3 134 5 144 21 9 15 -42 123 -299
635 l-310 617 -712 3 -712 2 -15 -22z m164 -63 c0 -2 -12 -29 -27 -60 l-27
-55 -53 0 c-29 0 -53 2 -53 5 0 2 12 29 27 60 l27 55 53 0 c29 0 53 -2 53 -5z
m200 0 c0 -2 -12 -29 -27 -60 l-27 -55 -53 0 c-29 0 -53 2 -53 5 0 2 12 29 27
60 l27 55 53 0 c29 0 53 -2 53 -5z m200 0 c0 -2 -12 -29 -27 -60 l-27 -55 -53
0 c-29 0 -53 2 -53 5 0 2 12 29 27 60 l27 55 53 0 c29 0 53 -2 53 -5z m200 0
c0 -2 -12 -29 -27 -60 l-27 -55 -53 0 c-29 0 -53 2 -53 5 0 2 12 29 27 60 l27
55 53 0 c29 0 53 -2 53 -5z m200 0 c0 -2 -12 -29 -27 -60 l-27 -55 -53 0 c-29
0 -53 2 -53 5 0 2 12 29 27 60 l27 55 53 0 c29 0 53 -2 53 -5z m170 -55 l-30
-60 -50 0 c-28 0 -50 2 -50 5 0 2 12 29 27 60 l27 55 53 0 53 0 -30 -60z m533
-495 c152 -305 277 -557 277 -560 0 -3 -31 -5 -70 -5 l-69 0 -222 450 c-225
455 -241 482 -275 449 -7 -8 -109 -212 -228 -454 l-214 -440 -646 -3 -646 -2
0 60 0 60 594 0 c463 0 596 3 603 13 5 6 65 127 133 267 68 140 174 360 236
488 l113 232 68 0 68 0 278 -555z m-1623 295 l-30 -60 -55 0 c-30 0 -55 2 -55
5 0 2 12 29 27 60 l27 55 58 0 58 0 -30 -60z m200 0 l-30 -60 -55 0 -54 0 21
48 c30 69 34 72 94 72 l54 0 -30 -60z m200 0 l-30 -60 -54 0 -55 0 26 60 26
60 59 0 58 0 -30 -60z m200 0 l-30 -60 -55 0 -55 0 30 60 30 60 55 0 55 0 -30
-60z m200 0 l-30 -60 -55 0 -54 0 20 43 c11 23 23 50 26 60 4 14 17 17 64 17
l59 0 -30 -60z m220 55 c0 -2 -12 -29 -27 -60 l-27 -55 -52 0 -52 0 26 60 27
60 52 0 c29 0 53 -2 53 -5z m-1120 -255 l-30 -60 -55 0 -55 0 30 60 30 60 55
0 55 0 -30 -60z m200 0 l-30 -60 -55 0 -55 0 30 60 30 60 55 0 55 0 -30 -60z
m200 0 l-30 -60 -55 0 -55 0 30 60 30 60 55 0 55 0 -30 -60z m200 0 l-30 -60
-55 0 -55 0 30 60 30 60 55 0 55 0 -30 -60z m200 0 l-30 -60 -55 0 -55 0 30
60 30 60 55 0 55 0 -30 -60z m220 56 c0 -2 -12 -29 -26 -60 l-25 -56 -55 0
-54 0 30 60 30 60 50 0 c28 0 50 -2 50 -4z m-1120 -256 l-30 -60 -55 0 -55 0
30 60 30 60 55 0 55 0 -30 -60z m200 0 l-30 -60 -55 0 -55 0 30 60 30 60 55 0
55 0 -30 -60z m200 0 l-30 -60 -55 0 -55 0 30 60 30 60 55 0 55 0 -30 -60z
m200 0 l-30 -60 -55 0 -55 0 30 60 30 60 55 0 55 0 -30 -60z m200 0 l-30 -60
-55 0 -55 0 30 60 30 60 55 0 55 0 -30 -60z m200 0 l-30 -60 -55 0 -55 0 30
60 30 60 55 0 55 0 -30 -60z m-1070 -145 c0 -2 -12 -29 -27 -60 l-27 -55 -53
0 c-29 0 -53 2 -53 4 0 2 12 29 26 60 l25 56 55 0 c30 0 54 -2 54 -5z m200 0
c0 -2 -12 -29 -27 -60 l-27 -55 -53 0 c-29 0 -53 2 -53 4 0 2 11 29 25 60 l25
56 55 0 c30 0 55 -2 55 -5z m200 0 c0 -2 -12 -29 -27 -60 l-27 -55 -53 0 c-29
0 -53 2 -53 5 0 2 11 29 24 60 l25 55 55 0 c31 0 56 -2 56 -5z m200 0 c0 -2
-12 -29 -27 -60 l-27 -55 -53 0 c-29 0 -53 2 -53 4 0 2 11 29 25 60 l25 56 55
0 c30 0 55 -2 55 -5z m200 0 c0 -2 -12 -29 -27 -60 l-27 -55 -53 0 c-29 0 -53
2 -53 5 0 2 11 29 24 60 l25 55 55 0 c31 0 56 -2 56 -5z m175 -51 c-14 -31
-25 -58 -25 -60 0 -2 -25 -4 -55 -4 -30 0 -55 2 -55 4 0 2 11 29 25 60 l25 56
55 0 55 0 -25 -56z"/>
</g>
</svg>
